<?xml version="1.0" encoding="UTF-8" standalone="no"?>
<!-- Created with Inkscape (http://www.inkscape.org/) -->
<svg xmlns:dc="http://purl.org/dc/elements/1.1/" xmlns:cc="http://creativecommons.org/ns#" xmlns:rdf="http://www.w3.org/1999/02/22-rdf-syntax-ns#" xmlns:svg="http://www.w3.org/2000/svg" xmlns="http://www.w3.org/2000/svg" xmlns:xlink="http://www.w3.org/1999/xlink" xmlns:sodipodi="http://sodipodi.sourceforge.net/DTD/sodipodi-0.dtd" xmlns:inkscape="http://www.inkscape.org/namespaces/inkscape" width="400" height="400" id="svg2" sodipodi:version="0.32" inkscape:version="0.46" version="1.0" sodipodi:docname="analog clock.svg" inkscape:output_extension="org.inkscape.output.svg.inkscape" inkscape:export-filename="C:\Documents and Settings\Piotrek\Pulpit\analog clock.png" inkscape:export-xdpi="90" inkscape:export-ydpi="90">
  <defs id="defs4">
    <linearGradient inkscape:collect="always" id="linearGradient3357">
      <stop style="stop-color:#ffffff;stop-opacity:1;" offset="0" id="stop3359"/>
      <stop style="stop-color:#ffffff;stop-opacity:0;" offset="1" id="stop3361"/>
    </linearGradient>
    <linearGradient inkscape:collect="always" id="linearGradient3342">
      <stop style="stop-color:#ffffff;stop-opacity:1;" offset="0" id="stop3344"/>
      <stop style="stop-color:#ffffff;stop-opacity:0;" offset="1" id="stop3346"/>
    </linearGradient>
    <linearGradient inkscape:collect="always" id="linearGradient3223">
      <stop style="stop-color:#ffffff;stop-opacity:1;" offset="0" id="stop3225"/>
      <stop style="stop-color:#ffffff;stop-opacity:0;" offset="1" id="stop3227"/>
    </linearGradient>
    <linearGradient id="linearGradient3961">
      <stop id="stop3965" offset="0" style="stop-color:#f0f7f9;stop-opacity:1;"/>
      <stop id="stop3963" offset="1" style="stop-color:#cccccc;stop-opacity:1;"/>
    </linearGradient>
    <linearGradient inkscape:collect="always" id="linearGradient3135">
      <stop style="stop-color:#ffffff;stop-opacity:1;" offset="0" id="stop3137"/>
      <stop style="stop-color:#ffffff;stop-opacity:0;" offset="1" id="stop3139"/>
    </linearGradient>
    <linearGradient inkscape:collect="always" id="linearGradient3121">
      <stop style="stop-color:#ffffff;stop-opacity:1;" offset="0" id="stop3123"/>
      <stop style="stop-color:#ffffff;stop-opacity:0;" offset="1" id="stop3125"/>
    </linearGradient>
    <inkscape:perspective sodipodi:type="inkscape:persp3d" inkscape:vp_x="0 : 526.18109 : 1" inkscape:vp_y="0 : 1000 : 0" inkscape:vp_z="744.09448 : 526.18109 : 1" inkscape:persp3d-origin="372.04724 : 350.78739 : 1" id="perspective10"/>
    <linearGradient inkscape:collect="always" xlink:href="#linearGradient3121" id="linearGradient3127" x1="358.93213" y1="516.56403" x2="261.60901" y2="185.8992" gradientUnits="userSpaceOnUse"/>
    <linearGradient inkscape:collect="always" xlink:href="#linearGradient3135" id="linearGradient3141" x1="289.70889" y1="191.53207" x2="325.64322" y2="295.89066" gradientUnits="userSpaceOnUse"/>
    <filter inkscape:collect="always" id="filter3945">
      <feGaussianBlur inkscape:collect="always" stdDeviation="2.4871406" id="feGaussianBlur3947"/>
    </filter>
    <filter inkscape:collect="always" id="filter3957">
      <feGaussianBlur inkscape:collect="always" stdDeviation="5.2571429" id="feGaussianBlur3959"/>
    </filter>
    <radialGradient inkscape:collect="always" xlink:href="#linearGradient3961" id="radialGradient3967" cx="-485.71429" cy="332.36218" fx="-485.71429" fy="332.36218" r="262.85715" gradientUnits="userSpaceOnUse"/>
    <radialGradient inkscape:collect="always" xlink:href="#linearGradient3961" id="radialGradient4039" gradientUnits="userSpaceOnUse" cx="-485.71429" cy="332.36218" fx="-485.71429" fy="332.36218" r="262.85715"/>
    <linearGradient inkscape:collect="always" xlink:href="#linearGradient3135" id="linearGradient4041" gradientUnits="userSpaceOnUse" x1="289.70889" y1="191.53207" x2="325.64322" y2="295.89066"/>
    <linearGradient inkscape:collect="always" xlink:href="#linearGradient3121" id="linearGradient4043" gradientUnits="userSpaceOnUse" x1="358.93213" y1="516.56403" x2="261.60901" y2="185.8992"/>
    <linearGradient inkscape:collect="always" xlink:href="#linearGradient3223" id="linearGradient3229" x1="-485.71429" y1="614.71124" x2="-221.35715" y2="332.36218" gradientUnits="userSpaceOnUse"/>
    <filter inkscape:collect="always" id="filter3239">
      <feGaussianBlur inkscape:collect="always" stdDeviation="5.2985541" id="feGaussianBlur3241"/>
    </filter>
    <filter inkscape:collect="always" id="filter3249">
      <feGaussianBlur inkscape:collect="always" stdDeviation="5.2571429" id="feGaussianBlur3251"/>
    </filter>
    <filter inkscape:collect="always" id="filter3371">
      <feGaussianBlur inkscape:collect="always" stdDeviation="1.0463822" id="feGaussianBlur3373"/>
    </filter>
    <radialGradient inkscape:collect="always" xlink:href="#linearGradient3357" id="radialGradient3401" gradientUnits="userSpaceOnUse" gradientTransform="matrix(-0.9921852,0.1247736,-7.5182612e-2,-0.5978435,-502.19922,415.88046)" cx="-260.00867" cy="219.2083" fx="-260.00867" fy="219.2083" r="37.015625"/>
    <radialGradient inkscape:collect="always" xlink:href="#linearGradient3342" id="radialGradient3405" cx="-257.14285" cy="352.99625" fx="-257.14285" fy="352.99625" r="52.319111" gradientUnits="userSpaceOnUse" gradientTransform="matrix(1.6357018,-1.4126707e-2,8.6361586e-3,0.9999627,160.41765,-3.6194177)"/>
    <linearGradient inkscape:collect="always" xlink:href="#linearGradient3223" id="linearGradient3457" gradientUnits="userSpaceOnUse" x1="-485.71429" y1="614.71124" x2="-221.35715" y2="332.36218"/>
    <radialGradient inkscape:collect="always" xlink:href="#linearGradient3961" id="radialGradient3459" gradientUnits="userSpaceOnUse" cx="-485.71429" cy="332.36218" fx="-485.71429" fy="332.36218" r="262.85715"/>
    <radialGradient inkscape:collect="always" xlink:href="#linearGradient3342" id="radialGradient3461" gradientUnits="userSpaceOnUse" gradientTransform="matrix(1.6357018,-1.4126707e-2,8.6361586e-3,0.9999627,160.41765,-3.6194177)" cx="-257.14285" cy="352.99625" fx="-257.14285" fy="352.99625" r="52.319111"/>
    <radialGradient inkscape:collect="always" xlink:href="#linearGradient3357" id="radialGradient3463" gradientUnits="userSpaceOnUse" gradientTransform="matrix(-0.9921852,0.1247736,-7.5182612e-2,-0.5978435,-502.19922,415.88046)" cx="-260.00867" cy="219.2083" fx="-260.00867" fy="219.2083" r="37.015625"/>
    <linearGradient inkscape:collect="always" xlink:href="#linearGradient3135" id="linearGradient3465" gradientUnits="userSpaceOnUse" x1="289.70889" y1="191.53207" x2="325.64322" y2="295.89066"/>
    <linearGradient inkscape:collect="always" xlink:href="#linearGradient3121" id="linearGradient3467" gradientUnits="userSpaceOnUse" x1="358.93213" y1="516.56403" x2="261.60901" y2="185.8992"/>
    <linearGradient inkscape:collect="always" xlink:href="#linearGradient3223" id="linearGradient2582" gradientUnits="userSpaceOnUse" x1="-485.71429" y1="614.71124" x2="-221.35715" y2="332.36218"/>
    <radialGradient inkscape:collect="always" xlink:href="#linearGradient3961" id="radialGradient2584" gradientUnits="userSpaceOnUse" cx="-485.71429" cy="332.36218" fx="-485.71429" fy="332.36218" r="262.85715"/>
    <radialGradient inkscape:collect="always" xlink:href="#linearGradient3342" id="radialGradient2586" gradientUnits="userSpaceOnUse" gradientTransform="matrix(1.6357018,-1.4126707e-2,8.6361586e-3,0.9999627,160.41765,-3.6194177)" cx="-257.14285" cy="352.99625" fx="-257.14285" fy="352.99625" r="52.319111"/>
    <radialGradient inkscape:collect="always" xlink:href="#linearGradient3357" id="radialGradient2588" gradientUnits="userSpaceOnUse" gradientTransform="matrix(-0.9921852,0.1247736,-7.5182612e-2,-0.5978435,-502.19922,415.88046)" cx="-260.00867" cy="219.2083" fx="-260.00867" fy="219.2083" r="37.015625"/>
    <linearGradient inkscape:collect="always" xlink:href="#linearGradient3135" id="linearGradient2594" gradientUnits="userSpaceOnUse" x1="289.70889" y1="191.53207" x2="325.64322" y2="295.89066"/>
    <linearGradient inkscape:collect="always" xlink:href="#linearGradient3121" id="linearGradient2596" gradientUnits="userSpaceOnUse" x1="358.93213" y1="516.56403" x2="261.60901" y2="185.8992"/>
    <linearGradient inkscape:collect="always" xlink:href="#linearGradient3223" id="linearGradient2640" gradientUnits="userSpaceOnUse" x1="-485.71429" y1="614.71124" x2="-221.35715" y2="332.36218"/>
    <radialGradient inkscape:collect="always" xlink:href="#linearGradient3961" id="radialGradient2642" gradientUnits="userSpaceOnUse" cx="-485.71429" cy="332.36218" fx="-485.71429" fy="332.36218" r="262.85715"/>
    <radialGradient inkscape:collect="always" xlink:href="#linearGradient3342" id="radialGradient2644" gradientUnits="userSpaceOnUse" gradientTransform="matrix(1.6357018,-1.4126707e-2,8.6361586e-3,0.9999627,160.41765,-3.6194177)" cx="-257.14285" cy="352.99625" fx="-257.14285" fy="352.99625" r="52.319111"/>
    <radialGradient inkscape:collect="always" xlink:href="#linearGradient3357" id="radialGradient2646" gradientUnits="userSpaceOnUse" gradientTransform="matrix(-0.9921852,0.1247736,-7.5182612e-2,-0.5978435,-502.19922,415.88046)" cx="-260.00867" cy="219.2083" fx="-260.00867" fy="219.2083" r="37.015625"/>
    <linearGradient inkscape:collect="always" xlink:href="#linearGradient3135" id="linearGradient2648" gradientUnits="userSpaceOnUse" x1="289.70889" y1="191.53207" x2="325.64322" y2="295.89066"/>
    <linearGradient inkscape:collect="always" xlink:href="#linearGradient3121" id="linearGradient2650" gradientUnits="userSpaceOnUse" x1="358.93213" y1="516.56403" x2="261.60901" y2="185.8992"/>
  </defs>
  <sodipodi:namedview id="base" pagecolor="#ffffff" bordercolor="#666666" borderopacity="1.0" gridtolerance="10000" guidetolerance="10" objecttolerance="10" inkscape:pageopacity="0.0" inkscape:pageshadow="2" inkscape:zoom="0.95282639" inkscape:cx="216.11809" inkscape:cy="181.37638" inkscape:document-units="px" inkscape:current-layer="layer1" showgrid="false" showguides="false" inkscape:guide-bbox="true">
    <sodipodi:guide orientation="1,0" position="300,352.63507" id="guide3076"/>
    <sodipodi:guide orientation="0,1" position="247.1594,300" id="guide3078"/>
  </sodipodi:namedview>
  <metadata id="metadata7">
    <rdf:RDF>
      <cc:Work rdf:about="">
        <dc:format>image/svg+xml</dc:format>
        <dc:type rdf:resource="http://purl.org/dc/dcmitype/StillImage"/>
      </cc:Work>
    </rdf:RDF>
  </metadata>
  <g inkscape:label="Layer 1" inkscape:groupmode="layer" id="layer1" transform="translate(-278.33586,-412.88999)" style="display:inline">
    <g id="g2601" transform="matrix(1.3206547,0,0,1.3206547,-153.38065,-196.52607)">
      <g transform="translate(50.556581,49.999996)" id="g2547">
        <path transform="matrix(0.5516304,0,0,0.5516304,695.71405,381.83479)" d="M -222.85715,332.36218 A 262.85715,262.85715 0 1 1 -748.57144,332.36218 A 262.85715,262.85715 0 1 1 -222.85715,332.36218 z" sodipodi:ry="262.85715" sodipodi:rx="262.85715" sodipodi:cy="332.36218" sodipodi:cx="-485.71429" id="path3243" style="fill:#000000;fill-opacity:1;fill-rule:evenodd;stroke:none;stroke-width:3;stroke-linecap:round;stroke-linejoin:miter;marker:none;marker-start:none;marker-mid:none;marker-end:none;stroke-miterlimit:4;stroke-dasharray:none;stroke-dashoffset:0;stroke-opacity:1;visibility:visible;display:inline;overflow:visible;filter:url(#filter3249);enable-background:accumulate" sodipodi:type="arc"/>
        <path sodipodi:type="arc" style="fill:#333333;fill-opacity:1;fill-rule:evenodd;stroke:none;stroke-width:3;stroke-linecap:round;stroke-linejoin:miter;marker:none;marker-start:none;marker-mid:none;marker-end:none;stroke-miterlimit:4;stroke-dasharray:none;stroke-dashoffset:0;stroke-opacity:1;visibility:visible;display:inline;overflow:visible;enable-background:accumulate" id="path3951" sodipodi:cx="-485.71429" sodipodi:cy="332.36218" sodipodi:rx="262.85715" sodipodi:ry="262.85715" d="M -222.85715,332.36218 A 262.85715,262.85715 0 1 1 -748.57144,332.36218 A 262.85715,262.85715 0 1 1 -222.85715,332.36218 z" transform="matrix(0.5516304,0,0,0.5516304,695.71405,377.26303)"/>
        <path transform="matrix(0.5123171,0,0,0.5123171,676.61906,389.7707)" d="M -222.85715,332.36218 A 262.85715,262.85715 0 1 1 -748.57144,332.36218 A 262.85715,262.85715 0 1 1 -222.85715,332.36218 z" sodipodi:ry="262.85715" sodipodi:rx="262.85715" sodipodi:cy="332.36218" sodipodi:cx="-485.71429" id="path3949" style="fill:#000000;fill-opacity:1;fill-rule:evenodd;stroke:none;stroke-width:3;stroke-linecap:round;stroke-linejoin:miter;marker:none;marker-start:none;marker-mid:none;marker-end:none;stroke-miterlimit:4;stroke-dasharray:none;stroke-dashoffset:0;stroke-opacity:1;visibility:visible;display:inline;overflow:visible;filter:url(#filter3957);enable-background:accumulate" sodipodi:type="arc"/>
        <path transform="matrix(0.4958766,0,0,0.4958766,668.63385,395.23783)" d="M -222.85715,332.36218 A 262.85715,262.85715 0 1 1 -748.57144,332.36218 A 262.85715,262.85715 0 1 1 -222.85715,332.36218 z" sodipodi:ry="262.85715" sodipodi:rx="262.85715" sodipodi:cy="332.36218" sodipodi:cx="-485.71429" id="path2451" style="fill:none;fill-opacity:1;fill-rule:evenodd;stroke:url(#linearGradient2640);stroke-width:4.14111948;stroke-linecap:round;stroke-linejoin:miter;marker:none;marker-start:none;marker-mid:none;marker-end:none;stroke-miterlimit:4;stroke-dasharray:none;stroke-dashoffset:0;stroke-opacity:1;visibility:visible;display:inline;overflow:visible;filter:url(#filter3239);enable-background:accumulate" sodipodi:type="arc"/>
        <path sodipodi:type="arc" style="fill:url(#radialGradient2642);fill-opacity:1;fill-rule:evenodd;stroke:none;stroke-width:3;stroke-linecap:round;stroke-linejoin:miter;marker:none;marker-start:none;marker-mid:none;marker-end:none;stroke-miterlimit:4;stroke-dasharray:none;stroke-dashoffset:0;stroke-opacity:1;visibility:visible;display:inline;overflow:visible;enable-background:accumulate" id="path2383" sodipodi:cx="-485.71429" sodipodi:cy="332.36218" sodipodi:rx="262.85715" sodipodi:ry="262.85715" d="M -222.85715,332.36218 A 262.85715,262.85715 0 1 1 -748.57144,332.36218 A 262.85715,262.85715 0 1 1 -222.85715,332.36218 z" transform="matrix(0.4958766,0,0,0.4958766,668.63385,395.23783)"/>
        <g id="g3143" transform="matrix(0.4575155,0,0,0.4575155,240.56969,302.32166)">
          <path inkscape:transform-center-x="43.615445" inkscape:transform-center-y="-80.137915" id="rect3080" d="M 293.94991,363.67746 L 401.21205,567.83594 L 404.43258,565.97656 L 420.99973,602.67171 L 436.91295,593.48421 L 413.4176,560.78906 L 417.12527,558.64844 L 293.94991,363.67746 z" style="fill:#000000;fill-opacity:1;fill-rule:evenodd;stroke:none;stroke-width:16;stroke-linecap:round;stroke-linejoin:miter;marker:none;marker-start:none;marker-mid:none;marker-end:none;stroke-miterlimit:4;stroke-dashoffset:0;stroke-opacity:1;visibility:visible;display:inline;overflow:visible;enable-background:accumulate"/>
          <path inkscape:transform-center-x="-56.41288" style="fill:#000000;fill-opacity:1;fill-rule:evenodd;stroke:none;stroke-width:16;stroke-linecap:round;stroke-linejoin:miter;marker:none;marker-start:none;marker-mid:none;marker-end:none;stroke-miterlimit:4;stroke-dashoffset:0;stroke-opacity:1;visibility:visible;display:inline;overflow:visible;enable-background:accumulate" d="M 552.38379,468.05549 L 403.60975,555.14678 L 405.84471,558.50332 L 378.53571,571.47579 L 389.57898,588.06112 L 412.08,567.86782 L 414.65301,571.7321 L 552.38379,468.05549 z" id="path3087" inkscape:transform-center-y="-35.254195"/>
        </g>
        <path style="fill:#000000;fill-opacity:1;fill-rule:evenodd;stroke:none;stroke-width:16;stroke-linecap:butt;stroke-linejoin:miter;stroke-opacity:1" d="M 424.12633,439.78202 L 425.04137,455.92374 L 430.53155,455.92374 L 431.44658,439.78202 L 424.12633,439.78202 z M 416.73461,440.28243 L 413.68926,440.61127 L 415.648,452.57816 L 417.32079,452.40659 L 416.73461,440.28243 z M 438.83832,440.28243 L 438.25212,452.40659 L 439.92492,452.57816 L 441.88365,440.61127 L 438.83832,440.28243 z M 404.2816,442.0982 L 401.27915,442.72728 L 404.48176,454.43682 L 406.12596,454.07938 L 404.2816,442.0982 z M 451.29132,442.0982 L 449.44696,454.09368 L 451.09116,454.43682 L 454.27947,442.74158 L 451.29132,442.0982 z M 392.07165,445.20073 L 389.16929,446.14435 L 393.55858,457.45356 L 395.17418,456.92456 L 392.07165,445.20073 z M 463.48697,445.20073 L 460.39874,456.93885 L 462.01434,457.45356 L 466.40363,446.14435 L 463.48697,445.20073 z M 380.26204,449.56142 L 377.47405,450.80529 L 383.02143,461.5855 L 384.56555,460.89922 L 380.26204,449.56142 z M 475.29659,449.56142 L 471.00738,460.91352 L 472.55149,461.5998 L 478.09887,450.80529 L 475.29659,449.56142 z M 370.82578,454.06508 L 364.47775,457.72521 L 373.34211,471.25051 L 378.10314,468.50542 L 370.82578,454.06508 z M 484.74714,454.06508 L 477.45549,468.50542 L 482.21651,471.25051 L 491.08087,457.72521 L 484.74714,454.06508 z M 358.32988,461.85715 L 355.85645,463.64432 L 363.53412,473.03768 L 364.89238,472.05116 L 358.32988,461.85715 z M 497.22873,461.85715 L 490.66625,472.06546 L 492.03879,473.05198 L 499.71648,463.65861 L 497.22873,461.85715 z M 348.45042,469.64921 L 346.17713,471.69373 L 354.78414,480.22925 L 356.04231,479.11406 L 348.45042,469.64921 z M 507.12251,469.66351 L 499.53061,479.11406 L 500.77448,480.24355 L 509.39578,471.70803 L 507.12251,469.66351 z M 339.44308,478.44208 L 337.38426,480.71536 L 346.84911,488.30726 L 347.9786,487.0491 L 339.44308,478.44208 z M 516.12985,478.44208 L 507.59432,487.06339 L 508.72381,488.30726 L 518.17436,480.71536 L 516.12985,478.44208 z M 331.39366,488.1214 L 329.59219,490.59484 L 339.78622,497.15733 L 340.78703,495.78478 L 331.39366,488.1214 z M 524.17925,488.1357 L 514.78589,495.79908 L 515.77241,497.17162 L 525.98073,490.60914 L 524.17925,488.1357 z M 325.46026,496.74271 L 321.80014,503.09073 L 336.24047,510.36809 L 338.98556,505.60707 L 325.46026,496.74271 z M 530.09836,496.74271 L 516.57306,505.60707 L 519.31815,510.36809 L 533.75849,503.09073 L 530.09836,496.74271 z M 318.54034,509.72471 L 317.29647,512.52699 L 328.63427,516.83049 L 329.32055,515.28638 L 318.54034,509.72471 z M 537.01829,509.739 L 526.23807,515.30068 L 526.92435,516.83049 L 538.26216,512.54129 L 537.01829,509.739 z M 313.8794,521.41995 L 312.93577,524.33661 L 324.65961,527.42484 L 325.18861,525.82353 L 313.8794,521.41995 z M 541.67922,521.43425 L 530.38431,525.83783 L 530.89902,527.43914 L 542.62285,524.35091 L 541.67922,521.43425 z M 310.46233,533.54411 L 309.83324,536.53226 L 321.81443,538.37661 L 322.17187,536.73242 L 310.46233,533.54411 z M 545.0963,533.55841 L 533.38676,536.74671 L 533.74419,538.39091 L 545.72538,536.54656 L 545.0963,533.55841 z M 308.33203,545.95421 L 308.01748,548.98525 L 320.12734,549.57144 L 320.31321,547.89865 L 308.33203,545.95421 z M 547.2266,545.96851 L 535.24541,547.91295 L 535.43128,549.58574 L 547.54114,548.99955 L 547.2266,545.96851 z M 307.51707,556.39129 L 307.51707,563.71153 L 323.65879,562.7965 L 323.65879,557.30631 L 307.51707,556.39129 z M 548.04155,556.39129 L 531.89983,557.30631 L 531.89983,562.7965 L 548.04155,563.71153 L 548.04155,556.39129 z M 320.12734,570.50278 L 308.01748,571.08897 L 308.33203,574.13431 L 320.31321,572.18986 L 320.12734,570.50278 z M 535.43128,570.51708 L 535.24541,572.20416 L 547.2266,574.14861 L 547.54114,571.10327 L 535.43128,570.51708 z M 321.81443,581.69761 L 309.83324,583.54197 L 310.46233,586.54441 L 322.17187,583.3561 L 321.81443,581.69761 z M 533.74419,581.71191 L 533.38676,583.3704 L 545.0963,586.55871 L 545.72538,583.55627 L 533.74419,581.71191 z M 324.65961,592.66368 L 312.93577,595.75191 L 313.8794,598.65428 L 325.17432,594.26499 L 324.65961,592.66368 z M 530.89902,592.67798 L 530.37002,594.27929 L 541.67922,598.66858 L 542.62285,595.76621 L 530.89902,592.67798 z M 328.63427,603.25803 L 317.29647,607.56153 L 318.54034,610.34952 L 329.32055,604.80214 L 328.63427,603.25803 z M 526.92435,603.27232 L 526.23807,604.81644 L 537.01829,610.36382 L 538.26216,607.57583 L 526.92435,603.27232 z M 336.24047,609.73473 L 321.80014,617.01209 L 325.46026,623.34582 L 338.98556,614.48145 L 336.24047,609.73473 z M 519.31815,609.73473 L 516.57306,614.48145 L 530.09836,623.34582 L 533.75849,617.01209 L 519.31815,609.73473 z M 339.78622,622.9312 L 329.5779,629.49368 L 331.37937,631.96712 L 340.77273,624.28944 L 339.78622,622.9312 z M 515.77241,622.94549 L 514.77159,624.30374 L 524.16496,631.98142 L 525.96643,629.50798 L 515.77241,622.94549 z M 346.83481,631.78126 L 337.38426,639.37316 L 339.42878,641.64644 L 347.96431,633.03943 L 346.83481,631.78126 z M 508.70951,631.79556 L 507.58003,633.05373 L 516.11554,641.66074 L 518.17436,639.38746 L 508.70951,631.79556 z M 354.78414,639.84497 L 346.16284,648.39479 L 348.43611,650.43932 L 356.02802,640.97446 L 354.78414,639.84497 z M 500.77448,639.85927 L 499.51632,640.98876 L 507.10821,650.45361 L 509.38149,648.39479 L 500.77448,639.85927 z M 363.51983,647.05084 L 355.84214,656.44421 L 358.32988,658.23137 L 364.89238,648.03736 L 363.51983,647.05084 z M 492.0245,647.05084 L 490.66625,648.05166 L 497.22873,658.24567 L 499.70218,656.44421 L 492.0245,647.05084 z M 373.34211,648.85231 L 364.47775,662.36331 L 370.82578,666.02343 L 378.10314,651.5974 L 373.34211,648.85231 z M 482.21651,648.85231 L 477.45549,651.5974 L 484.74714,666.02343 L 491.08087,662.36331 L 482.21651,648.85231 z M 383.00713,658.50302 L 377.45975,669.28323 L 380.26204,670.52711 L 384.55124,659.1893 L 383.00713,658.50302 z M 472.53719,658.50302 L 470.99308,659.1893 L 475.29659,670.5414 L 478.08457,669.29753 L 472.53719,658.50302 z M 393.54429,662.64926 L 389.15499,673.94418 L 392.07165,674.8878 L 395.15988,663.16396 L 393.54429,662.64926 z M 462.00004,662.64926 L 460.38444,663.16396 L 463.48697,674.90209 L 466.38933,673.95847 L 462.00004,662.64926 z M 425.04137,664.16478 L 424.12633,680.3065 L 431.44658,680.3065 L 430.53155,664.16478 L 425.04137,664.16478 z M 404.46747,665.666 L 401.27915,677.36124 L 404.26731,678.00462 L 406.11166,666.00914 L 404.46747,665.666 z M 451.07686,665.666 L 449.43266,666.00914 L 451.27703,678.00462 L 454.27947,677.36124 L 451.07686,665.666 z M 415.6337,667.52466 L 413.67497,679.49155 L 416.7203,679.80609 L 417.3065,667.69623 L 415.6337,667.52466 z M 439.91062,667.52466 L 438.23783,667.69623 L 438.82402,679.80609 L 441.86936,679.49155 L 439.91062,667.52466 z" id="path2385"/>
        <g id="g3147" transform="matrix(0.4575155,0,0,0.4575155,240.56969,302.32166)">
          <path style="fill:#000000;fill-opacity:1;fill-rule:evenodd;stroke:none;stroke-width:16;stroke-linecap:round;stroke-linejoin:miter;marker:none;marker-start:none;marker-mid:none;marker-end:none;stroke-miterlimit:4;stroke-dashoffset:0;stroke-opacity:1;visibility:visible;display:inline;overflow:visible;enable-background:accumulate" d="M 293.94991,363.67746 L 401.21205,567.83594 L 404.43258,565.97656 L 420.99973,602.67171 L 436.91295,593.48421 L 413.4176,560.78906 L 417.12527,558.64844 L 293.94991,363.67746 z" id="path3149" inkscape:transform-center-y="-80.137915" inkscape:transform-center-x="43.615445"/>
          <path inkscape:transform-center-y="-35.254195" id="path3151" d="M 552.38379,468.05549 L 403.60975,555.14678 L 405.84471,558.50332 L 378.53571,571.47579 L 389.57898,588.06112 L 412.08,567.86782 L 414.65301,571.7321 L 552.38379,468.05549 z" style="fill:#000000;fill-opacity:1;fill-rule:evenodd;stroke:none;stroke-width:16;stroke-linecap:round;stroke-linejoin:miter;marker:none;marker-start:none;marker-mid:none;marker-end:none;stroke-miterlimit:4;stroke-dashoffset:0;stroke-opacity:1;visibility:visible;display:inline;overflow:visible;enable-background:accumulate" inkscape:transform-center-x="-56.41288"/>
        </g>
        <g id="g3153" style="opacity:0.66176471;fill:#000000;filter:url(#filter3945)" transform="matrix(0.4575155,0,0,0.4575155,240.74975,303.40203)">
          <path inkscape:transform-center-x="43.615445" inkscape:transform-center-y="-80.137915" id="path3155" d="M 293.94991,363.67746 L 401.21205,567.83594 L 404.43258,565.97656 L 420.99973,602.67171 L 436.91295,593.48421 L 413.4176,560.78906 L 417.12527,558.64844 L 293.94991,363.67746 z" style="fill:#000000;fill-opacity:1;fill-rule:evenodd;stroke:none;stroke-width:16;stroke-linecap:round;stroke-linejoin:miter;marker:none;marker-start:none;marker-mid:none;marker-end:none;stroke-miterlimit:4;stroke-dashoffset:0;stroke-opacity:1;visibility:visible;display:inline;overflow:visible;enable-background:accumulate"/>
          <path inkscape:transform-center-x="-56.41288" style="fill:#000000;fill-opacity:1;fill-rule:evenodd;stroke:none;stroke-width:16;stroke-linecap:round;stroke-linejoin:miter;marker:none;marker-start:none;marker-mid:none;marker-end:none;stroke-miterlimit:4;stroke-dashoffset:0;stroke-opacity:1;visibility:visible;display:inline;overflow:visible;enable-background:accumulate" d="M 552.38379,468.05549 L 403.60975,555.14678 L 405.84471,558.50332 L 378.53571,571.47579 L 389.57898,588.06112 L 412.08,567.86782 L 414.65301,571.7321 L 552.38379,468.05549 z" id="path3157" inkscape:transform-center-y="-35.254195"/>
        </g>
        <g id="g2533">
          <path id="text3054" d="M 336.16832,567.46158 C 333.61646,567.46158 331.77899,567.15569 330.65591,566.5439 C 329.53282,565.93212 329.03109,564.95977 329.15071,563.62683 L 329.15071,563.32948 L 332.7592,563.32948 L 332.7592,563.62683 C 332.75919,564.36507 333.04827,564.92559 333.62643,565.30838 C 334.20458,565.69117 335.05187,565.88257 336.16832,565.88257 C 338.04233,565.88257 339.21857,565.55446 339.69706,564.89824 C 340.12235,564.31039 340.35495,562.99113 340.39483,560.94045 L 340.39483,560.94045 C 338.78662,561.63085 337.08538,561.97263 335.29112,561.96579 C 333.03165,561.96579 331.42013,561.63598 330.45655,560.97634 C 329.49295,560.31672 329.01115,559.21449 329.01116,557.66964 L 329.01116,557.11596 C 329.01115,555.61899 329.61922,554.49795 330.83534,553.75287 C 332.05145,553.0078 333.88227,552.63527 336.32781,552.63525 C 339.31825,552.63527 341.33515,553.0454 342.3785,553.86565 C 343.42183,554.68593 343.93684,556.2752 343.92357,558.63345 L 343.92357,560.36627 C 343.91026,563.15518 343.37198,565.03496 342.30872,566.00561 C 341.25873,566.97625 339.21193,567.46158 336.16832,567.46158 L 336.16832,567.46158 z M 340.27521,557.07495 C 340.2752,555.98811 340.00938,555.24816 339.47776,554.8551 C 338.94611,554.46207 337.94265,554.26555 336.46737,554.26553 C 335.09839,554.26555 334.12151,554.48087 333.53672,554.91149 C 332.95191,555.34214 332.65951,556.0633 332.65952,557.07495 L 332.65952,557.62863 C 332.65951,558.58561 332.95856,559.27601 333.55666,559.6998 C 334.15473,560.12361 335.12498,560.33551 336.46737,560.33551 C 337.7167,560.33551 338.66368,560.10482 339.3083,559.64341 C 339.9529,559.18202 340.2752,558.51042 340.27521,557.62863 L 340.27521,557.07495 z" style="font-size:57.03669739px;font-style:normal;font-variant:normal;font-weight:normal;font-stretch:normal;text-align:center;text-anchor:middle;fill:#000000;fill-opacity:1;stroke:none;stroke-width:1px;stroke-linecap:butt;stroke-linejoin:miter;stroke-opacity:1;font-family:Univers Condensed;-inkscape-font-specification:'Univers Condensed,'"/>
          <path id="text3058" d="M 374.69558,775.57574 C 374.69557,774.57495 374.50017,773.86246 374.10939,773.43829 C 373.71858,773.01415 373.06091,772.80207 372.13635,772.80206 C 371.29757,772.80207 370.66133,773.06181 370.22765,773.58126 C 369.79396,774.10075 369.59142,774.83706 369.62002,775.7902 L 369.62002,776.39069 L 367.0036,776.39069 L 367.0036,775.7902 C 366.89875,774.13173 367.29193,772.85212 368.18313,771.95136 C 369.07433,771.05065 370.39683,770.60028 372.15065,770.60026 C 373.83773,770.60028 375.11972,770.98393 375.99664,771.7512 C 376.87353,772.51851 377.31198,773.64085 377.31199,775.11823 L 377.31199,775.70442 C 377.31198,777.42012 376.92595,778.63063 376.15391,779.33595 C 375.71545,779.74582 375.08636,780.03176 374.26666,780.19379 L 374.26666,780.19379 C 375.15308,780.35584 375.806,780.63702 376.2254,781.03733 C 376.94978,781.71409 377.31198,783.02944 377.31199,784.98341 L 377.31199,786.0986 C 377.31198,787.82382 376.85208,789.11773 375.9323,789.98033 C 375.01249,790.84294 373.62803,791.27424 371.77892,791.27424 C 370.09182,791.27424 368.80745,790.8072 367.92578,789.8731 C 367.04411,788.93901 366.63187,787.60936 366.68906,785.88414 L 366.68906,785.28365 L 369.27688,785.28365 L 369.27688,785.88414 C 369.25781,786.96121 369.45083,787.75948 369.85592,788.27895 C 370.26101,788.79842 370.88771,789.05815 371.73602,789.05815 C 372.7559,789.05815 373.50889,788.78412 373.99501,788.23605 C 374.48111,787.68799 374.72416,786.84683 374.72417,785.71257 L 374.72417,784.59738 C 374.72416,783.58704 374.48111,782.7983 373.99501,782.23116 C 373.50889,781.66404 372.83215,781.38048 371.96478,781.38047 L 371.19273,781.38047 L 371.19273,779.0643 L 371.46437,779.0643 C 372.58909,779.06431 373.40881,778.83317 373.92352,778.37088 C 374.43822,777.90861 374.69557,777.1723 374.69558,776.16194 L 374.69558,775.57574 z" style="font-size:29.2809906px;font-style:normal;font-variant:normal;font-weight:normal;font-stretch:normal;text-align:center;text-anchor:middle;fill:#000000;fill-opacity:1;stroke:none;stroke-width:1px;stroke-linecap:butt;stroke-linejoin:miter;stroke-opacity:1;font-family:Univers Condensed;-inkscape-font-specification:'Univers Condensed,'" transform="scale(1.3944102,0.7171491)"/>
          <path id="path3256" d="M 432.60017,459.87401 C 430.07489,459.87402 428.23223,460.17089 427.04934,460.77241 C 425.86645,461.37395 425.34698,462.27377 425.49319,463.48365 L 425.49319,463.91681 L 429.13491,463.91681 L 429.13491,463.48365 C 429.09503,462.71124 429.33575,462.18356 429.8408,461.87937 C 430.34585,461.5752 431.25779,461.41414 432.60017,461.41413 C 433.63686,461.41414 434.48092,461.5881 435.1189,461.94354 C 435.75685,462.299 436.08146,462.78351 436.08147,463.37135 C 436.08146,464.4172 435.28598,465.6231 433.69108,466.99704 C 432.09616,468.37099 429.25815,470.268 425.20442,472.70829 L 425.20442,473.59065 L 425.20442,474.473 L 439.97988,474.473 L 439.97988,472.9008 L 428.79802,472.9008 C 432.82517,470.43317 435.61459,468.55248 437.15634,467.25372 C 438.87085,465.79775 439.72318,464.48765 439.72319,463.33927 C 439.72318,462.20458 439.11982,461.34424 437.91036,460.75637 C 436.70087,460.16169 434.92608,459.87402 432.60017,459.87401 z M 420.552,460.0184 C 419.70137,460.45589 418.91415,460.79461 418.20974,461.06118 C 417.5186,461.32095 416.64199,461.60833 415.57871,461.89541 L 415.57871,463.62804 C 417.00083,463.2521 418.17502,462.87891 419.09209,462.53712 L 419.81403,462.2644 L 419.81403,474.473 L 421.64291,474.473 L 423.45575,474.473 L 423.45575,460.0184 L 420.552,460.0184 z" style="font-size:57.03669739px;font-style:normal;font-variant:normal;font-weight:normal;font-stretch:normal;text-align:center;text-anchor:middle;fill:#000000;fill-opacity:1;stroke:none;stroke-width:1px;stroke-linecap:butt;stroke-linejoin:miter;stroke-opacity:1;font-family:Univers Condensed;-inkscape-font-specification:'Univers Condensed,'"/>
          <path id="text3050" d="M 428.04861,641.81324 C 430.60045,641.81327 432.43792,642.11914 433.56102,642.73092 C 434.68408,643.3427 435.18582,644.31506 435.06621,645.64799 L 435.06621,645.94532 L 431.45773,645.94532 L 431.45773,645.64799 C 431.45771,644.90975 431.16864,644.34926 430.5905,643.96644 C 430.01233,643.58366 429.16503,643.39225 428.04861,643.39225 C 426.34736,643.39225 425.23757,643.76137 424.71923,644.49962 C 424.26733,645.13532 424.02145,646.38623 423.98158,648.25235 L 423.98158,648.25235 C 425.58978,647.62348 427.34418,647.30904 429.24479,647.30904 C 431.38462,647.30904 432.91307,647.63887 433.83016,648.29848 C 434.74721,648.95811 435.20575,650.06036 435.20577,651.60517 L 435.20577,652.15886 C 435.20575,653.65585 434.5844,654.77687 433.34172,655.52196 C 432.099,656.26705 430.23495,656.63955 427.74956,656.63955 C 425.17111,656.63955 423.28713,656.26362 422.0976,655.51172 C 420.90805,654.75978 420.31329,653.57039 420.31329,651.94355 L 420.31329,650.21072 C 420.32658,646.73827 420.82499,644.46887 421.80852,643.40253 C 422.77875,642.34302 424.85878,641.81327 428.04861,641.81324 L 428.04861,641.81324 z M 423.96165,652.19987 C 423.96164,653.28672 424.22746,654.0267 424.7591,654.41971 C 425.29073,654.81276 426.28755,655.00929 427.74956,655.00929 C 429.11852,655.00929 430.09539,654.79399 430.68021,654.36335 C 431.265,653.9327 431.55739,653.21155 431.55741,652.19987 L 431.55741,651.64619 C 431.55739,650.68922 431.25835,649.99884 430.66027,649.57501 C 430.06217,649.15122 429.09194,648.93934 427.74956,648.9393 C 426.51349,648.93934 425.57316,649.17003 424.92856,649.63141 C 424.28394,650.09283 423.96164,650.7644 423.96165,651.64619 L 423.96165,652.19987 z" style="font-size:57.03669739px;font-style:normal;font-variant:normal;font-weight:normal;font-stretch:normal;text-align:center;text-anchor:middle;fill:#000000;fill-opacity:1;stroke:none;stroke-width:1px;stroke-linecap:butt;stroke-linejoin:miter;stroke-opacity:1;font-family:Univers Condensed;-inkscape-font-specification:'Univers Condensed,'"/>
          <path id="path3310" d="M 376.45715,472.72274 C 375.60653,473.16023 374.8193,473.51499 374.1149,473.78156 C 373.42376,474.04132 372.54714,474.31267 371.48387,474.59975 L 371.48387,476.33238 C 372.90599,475.95643 374.08017,475.59929 374.99725,475.25751 L 375.71918,474.98478 L 375.71918,487.19338 L 377.54807,487.19338 L 379.36091,487.19338 L 379.36091,472.72274 L 376.45715,472.72274 z M 388.69784,472.72274 C 387.84722,473.16023 387.07603,473.51499 386.37163,473.78156 C 385.6805,474.04132 384.80387,474.31267 383.7406,474.59975 L 383.7406,476.33238 C 385.16272,475.95643 386.32085,475.59929 387.23794,475.25751 L 387.95987,474.98478 L 387.95987,487.19338 L 389.78876,487.19338 L 391.61764,487.19338 L 391.61764,472.72274 L 388.69784,472.72274 z" style="font-size:57.03669739px;font-style:normal;font-variant:normal;font-weight:normal;font-stretch:normal;text-align:center;text-anchor:middle;fill:#000000;fill-opacity:1;stroke:none;stroke-width:1px;stroke-linecap:butt;stroke-linejoin:miter;stroke-opacity:1;font-family:Univers Condensed;-inkscape-font-specification:'Univers Condensed,'"/>
          <path id="path3318" d="M 355.71865,506.09428 C 353.19337,506.09429 351.33581,506.40853 350.1197,507.0408 C 348.90356,507.67311 348.29081,508.64818 348.29082,509.9606 L 348.29082,516.77881 C 348.29081,518.10491 348.92674,519.12526 350.21596,519.84299 C 351.50517,520.56073 353.33958,520.91786 355.71865,520.91787 C 358.15087,520.91787 360.01623,520.5631 361.28552,519.85904 C 362.55479,519.15497 363.17856,518.13225 363.17858,516.77881 L 363.17858,509.9606 C 363.17855,508.5935 362.59949,507.59764 361.42991,506.99267 C 360.26029,506.38774 358.35025,506.09429 355.71865,506.09428 z M 343.84695,506.23866 C 342.99632,506.67615 342.22514,507.03092 341.52073,507.29749 C 340.8296,507.55725 339.95298,507.82859 338.88971,508.11567 L 338.88971,509.8483 C 340.31183,509.47236 341.486,509.11522 342.40309,508.77343 L 343.10898,508.48466 L 343.10898,520.70931 L 344.9539,520.70931 L 346.76674,520.70931 L 346.76674,506.23866 L 343.84695,506.23866 z M 355.71865,507.68252 C 357.06102,507.68253 358.04035,507.85649 358.63845,508.21193 C 359.23652,508.56739 359.53684,509.15402 359.53685,509.9606 L 359.53685,516.77881 C 359.53683,517.59908 359.21888,518.2286 358.57428,518.65582 C 357.92966,519.08305 356.96799,519.28149 355.71865,519.2815 C 354.42942,519.2815 353.48104,519.082 352.86303,518.67187 C 352.24498,518.26173 351.93253,517.63326 351.93254,516.77881 L 351.93254,509.9606 C 351.93253,509.113 352.22459,508.5148 352.78281,508.17985 C 353.34102,507.84492 354.30981,507.68253 355.71865,507.68252 z" style="font-size:57.03669739px;font-style:normal;font-variant:normal;font-weight:normal;font-stretch:normal;text-align:center;text-anchor:middle;fill:#000000;fill-opacity:1;stroke:none;stroke-width:1px;stroke-linecap:butt;stroke-linejoin:miter;stroke-opacity:1;font-family:Univers Condensed;-inkscape-font-specification:'Univers Condensed,'"/>
          <path id="text3283" d="M 253.42427,845.8053 L 253.42427,845.8053 C 254.30116,845.99594 254.94931,846.31525 255.36871,846.76322 C 256.09309,847.53529 256.45529,849.02698 256.45531,851.2383 L 256.45531,850.80938 C 256.45529,852.63944 255.98586,854.07156 255.04702,855.10573 C 254.10815,856.13991 252.8047,856.65699 251.13669,856.657 C 249.33522,856.65699 248.0008,856.18042 247.13343,855.22726 C 246.26605,854.2741 245.83237,852.80148 245.83237,850.80938 L 245.83237,851.2383 C 245.83237,849.16995 246.23269,847.71162 247.03335,846.8633 C 247.52898,846.33908 248.24385,845.98164 249.17795,845.791 L 249.17795,845.791 C 248.41542,845.58132 247.8054,845.25725 247.34789,844.81878 C 246.54723,844.03721 246.14691,842.7981 246.14691,841.10147 L 246.14691,841.50179 C 246.14691,839.73847 246.58298,838.37784 247.45512,837.4199 C 248.32725,836.462 249.56874,835.98303 251.17958,835.98301 C 252.93338,835.98303 254.21299,836.42387 255.01842,837.30552 C 255.82383,838.18721 256.22654,839.58597 256.22655,841.50179 L 256.22655,841.10147 C 256.22654,842.7981 255.85957,844.04197 255.12565,844.83308 C 254.69672,845.29061 254.12959,845.61468 253.42427,845.8053 L 253.42427,845.8053 z M 251.17958,844.67581 C 252.00882,844.67582 252.62122,844.38987 253.01679,843.81797 C 253.41234,843.24609 253.61012,842.36442 253.61013,841.17296 L 253.61013,841.57328 C 253.61012,840.37232 253.41949,839.50733 253.03824,838.97831 C 252.65697,838.44933 252.03741,838.18483 251.17958,838.18481 C 250.37892,838.18483 249.77605,838.46839 249.37096,839.0355 C 248.96587,839.60265 248.76332,840.44857 248.76333,841.57328 L 248.76333,841.17296 C 248.76332,842.36442 248.96348,843.24609 249.36382,843.81797 C 249.7546,844.38987 250.35986,844.67582 251.17958,844.67581 L 251.17958,844.67581 z M 251.13669,846.93479 C 250.16446,846.9348 249.47342,847.23266 249.06357,847.82838 C 248.65371,848.42411 248.44878,849.41777 248.44878,850.80938 L 248.44878,850.38045 C 248.44878,851.92457 248.63703,852.97781 249.01353,853.54017 C 249.39002,854.10254 250.09774,854.38372 251.13669,854.38371 C 252.1089,854.38372 252.80232,854.07632 253.21695,853.46154 C 253.63157,852.84675 253.83888,851.81973 253.83889,850.38045 L 253.83889,850.80938 C 253.83888,849.31293 253.64825,848.29305 253.26699,847.74974 C 252.89525,847.20645 252.18515,846.9348 251.13669,846.93479 L 251.13669,846.93479 z" style="font-size:29.2809906px;font-style:normal;font-variant:normal;font-weight:normal;font-stretch:normal;text-align:center;text-anchor:middle;fill:#000000;fill-opacity:1;stroke:none;stroke-width:1px;stroke-linecap:butt;stroke-linejoin:miter;stroke-opacity:1;font-family:Univers Condensed;-inkscape-font-specification:'Univers Condensed,'" transform="scale(1.3944102,0.7171491)"/>
          <path id="text3287" d="M 270.40784,899.38739 L 277.15619,881.41561 L 277.15619,881.41561 L 269.40702,881.41561 L 269.40702,879.21382 L 279.48666,879.21382 L 279.48666,880.31471 L 279.48666,881.41561 L 273.51037,899.38739 L 270.40784,899.38739 z" style="font-size:29.2809906px;font-style:normal;font-variant:normal;font-weight:normal;font-stretch:normal;text-align:center;text-anchor:middle;fill:#000000;fill-opacity:1;stroke:none;stroke-width:1px;stroke-linecap:butt;stroke-linejoin:miter;stroke-opacity:1;font-family:Univers Condensed;-inkscape-font-specification:'Univers Condensed,'" transform="scale(1.3944102,0.7171491)"/>
          <path id="text3291" d="M 344.76384,893.67594 C 344.76383,895.95399 344.38018,897.55768 343.6129,898.487 C 342.8456,899.41633 341.52309,899.88099 339.64538,899.88099 C 337.78672,899.88099 336.49281,899.54262 335.76365,898.86588 C 335.03448,898.18914 334.62701,896.9548 334.54123,895.16287 L 334.54123,894.56238 L 337.12905,894.56238 L 337.12905,895.16287 C 337.18623,896.01118 337.39355,896.63311 337.75098,897.02867 C 338.10841,897.42423 338.64933,897.62201 339.37373,897.62201 C 340.47939,897.62201 341.22285,897.32892 341.60412,896.74272 C 341.98538,896.15654 342.17601,895.01513 342.17602,893.31851 L 342.17602,891.97455 C 342.17601,890.70686 342.00206,889.82281 341.65416,889.32239 C 341.30625,888.822 340.68908,888.57179 339.80265,888.57178 C 338.95434,888.57179 338.32287,888.79817 337.90825,889.25091 C 337.49363,889.70367 337.29585,890.38279 337.31491,891.28828 L 334.64131,891.28828 L 334.82717,879.40718 L 334.82717,879.40718 L 344.26343,879.40718 L 344.26343,881.68046 L 337.21483,881.68046 L 337.21483,881.68046 L 337.11475,888.09997 L 337.11475,888.09997 C 337.56273,887.652 337.93446,887.31839 338.22995,887.09916 C 338.89715,886.61306 339.7121,886.37 340.67479,886.36999 C 342.19984,886.37 343.26261,886.80607 343.8631,887.6782 C 344.46358,888.55035 344.76383,890.10161 344.76384,892.33199 L 344.76384,893.67594 z" style="font-size:29.2809906px;font-style:normal;font-variant:normal;font-weight:normal;font-stretch:normal;text-align:center;text-anchor:middle;fill:#000000;fill-opacity:1;stroke:none;stroke-width:1px;stroke-linecap:butt;stroke-linejoin:miter;stroke-opacity:1;font-family:Univers Condensed;-inkscape-font-specification:'Univers Condensed,'" transform="scale(1.3944102,0.7171491)"/>
          <path id="text3295" d="M 363.55375,848.88252 L 356.27639,848.88252 L 356.27639,847.83881 L 356.27639,846.79511 L 362.53863,833.65583 L 364.3544,833.65583 L 366.17016,833.65583 L 366.17016,846.68073 L 366.17016,846.68073 L 368.48634,846.68073 L 368.48634,848.88252 L 366.17016,848.88252 L 366.17016,848.88252 L 366.17016,853.82941 L 363.55375,853.82941 L 363.55375,848.88252 L 363.55375,848.88252 z M 363.55375,846.68073 L 363.55375,846.68073 L 363.55375,836.15787 L 363.55375,836.15787 L 363.55375,836.15787 L 358.59256,846.68073 L 358.59256,846.68073 L 363.55375,846.68073 z" style="font-size:29.2809906px;font-style:normal;font-variant:normal;font-weight:normal;font-stretch:normal;text-align:center;text-anchor:middle;fill:#000000;fill-opacity:1;stroke:none;stroke-width:1px;stroke-linecap:butt;stroke-linejoin:miter;stroke-opacity:1;font-family:Univers Condensed;-inkscape-font-specification:'Univers Condensed,'" transform="scale(1.3944102,0.7171491)"/>
          <path id="text3299" d="M 368.06384,709.67723 C 368.06383,711.27855 367.44904,713.09431 366.21948,715.12452 C 365.11381,716.93553 363.11695,719.56148 360.22889,723.00237 L 360.22889,723.00237 L 368.24971,723.00237 L 368.24971,725.20416 L 357.65536,725.20416 L 357.65536,723.97459 L 357.65536,722.74502 C 360.56249,719.34225 362.58795,716.68295 363.73174,714.76709 C 364.87552,712.85126 365.44742,711.16417 365.44742,709.70583 C 365.44742,708.88613 365.21866,708.22845 364.76115,707.73279 C 364.30363,707.23717 363.70314,706.98935 362.95968,706.98933 C 361.99699,706.98935 361.33455,707.20142 360.97235,707.62556 C 360.61015,708.04973 360.44334,708.80034 360.47194,709.87739 L 360.47194,710.47788 L 357.85553,710.47788 L 357.85553,709.87739 C 357.75068,708.19032 358.12241,706.92739 358.97072,706.08859 C 359.81903,705.24984 361.14868,704.83045 362.95968,704.83043 C 364.6277,704.83045 365.8954,705.24507 366.76278,706.0743 C 367.63014,706.89403 368.06383,708.09501 368.06384,709.67723 L 368.06384,709.67723 z" style="font-size:29.2809906px;font-style:normal;font-variant:normal;font-weight:normal;font-stretch:normal;text-align:center;text-anchor:middle;fill:#000000;fill-opacity:1;stroke:none;stroke-width:1px;stroke-linecap:butt;stroke-linejoin:miter;stroke-opacity:1;font-family:Univers Condensed;-inkscape-font-specification:'Univers Condensed,'" transform="scale(1.3944102,0.7171491)"/>
          <path id="text3303" d="M 339.98832,678.32587 L 339.98832,661.29771 L 339.98832,661.29771 L 339.47361,661.68374 C 338.81593,662.16034 337.97715,662.66074 336.95728,663.18496 L 336.95728,660.76871 C 337.7198,660.3684 338.34888,659.98714 338.84453,659.62492 C 339.34969,659.25321 339.90729,658.76233 340.51732,658.15229 L 342.60473,658.15229 L 342.60473,658.15229 L 342.60473,678.32587 L 342.60473,678.32587 L 341.30367,678.32587 L 339.98832,678.32587 L 339.98832,678.32587 z" style="font-size:29.2809906px;font-style:normal;font-variant:normal;font-weight:normal;font-stretch:normal;text-align:center;text-anchor:middle;fill:#000000;fill-opacity:1;stroke:none;stroke-width:1px;stroke-linecap:butt;stroke-linejoin:miter;stroke-opacity:1;font-family:Univers Condensed;-inkscape-font-specification:'Univers Condensed,'" transform="scale(1.3944102,0.7171491)"/>
        </g>
        <g id="g3407" transform="matrix(0.5051929,-9.1268706e-2,9.1268706e-2,0.5051929,169.64786,312.81006)">
          <path sodipodi:type="arc" style="opacity:0.8;fill:#000000;fill-opacity:1;fill-rule:evenodd;stroke:none;stroke-width:4;stroke-linecap:round;stroke-linejoin:miter;marker:none;marker-start:none;marker-mid:none;marker-end:none;stroke-miterlimit:4;stroke-dasharray:none;stroke-dashoffset:0;stroke-opacity:1;visibility:visible;display:inline;overflow:visible;filter:url(#filter3371);enable-background:accumulate" id="path3365" sodipodi:cx="-257.14285" sodipodi:cy="291.65121" sodipodi:rx="52.319111" sodipodi:ry="52.319111" d="M -204.82374,291.65121 A 52.319111,52.319111 0 1 1 -309.46196,291.65121 A 52.319111,52.319111 0 1 1 -204.82374,291.65121 z" transform="matrix(0.2171977,0,0,0.2171977,465.06856,500.17807)"/>
          <path transform="matrix(0.2171977,0,0,0.2171977,465.00812,499.75496)" d="M -204.82374,291.65121 A 52.319111,52.319111 0 1 1 -309.46196,291.65121 A 52.319111,52.319111 0 1 1 -204.82374,291.65121 z" sodipodi:ry="52.319111" sodipodi:rx="52.319111" sodipodi:cy="291.65121" sodipodi:cx="-257.14285" id="path3338" style="fill:#000000;fill-opacity:1;fill-rule:evenodd;stroke:none;stroke-width:4;stroke-linecap:round;stroke-linejoin:miter;marker:none;marker-start:none;marker-mid:none;marker-end:none;stroke-miterlimit:4;stroke-dasharray:none;stroke-dashoffset:0;stroke-opacity:1;visibility:visible;display:inline;overflow:visible;enable-background:accumulate" sodipodi:type="arc"/>
          <path sodipodi:type="arc" style="fill:url(#radialGradient2644);fill-opacity:1;fill-rule:evenodd;stroke:none;stroke-width:4;stroke-linecap:round;stroke-linejoin:miter;marker:none;marker-start:none;marker-mid:none;marker-end:none;stroke-miterlimit:4;stroke-dasharray:none;stroke-dashoffset:0;stroke-opacity:1;visibility:visible;display:inline;overflow:visible;enable-background:accumulate" id="path3340" sodipodi:cx="-257.14285" sodipodi:cy="291.65121" sodipodi:rx="52.319111" sodipodi:ry="52.319111" d="M -204.82374,291.65121 A 52.319111,52.319111 0 1 1 -309.46196,291.65121 A 52.319111,52.319111 0 1 1 -204.82374,291.65121 z" transform="matrix(0.1882657,0,0,0.1882657,457.56847,508.48366)"/>
          <path transform="matrix(0.2171977,0,0,0.2171977,465.00812,500.04561)" d="M -257.15625,243.625 C -274.31464,243.625 -289.22855,252.65288 -297.71875,266.15625 C -286.55442,255.5263 -271.49786,248.96875 -254.90625,248.96875 C -243.5261,248.96875 -232.87284,252.07649 -223.6875,257.4375 C -232.33991,248.96879 -244.07607,243.625 -257.15625,243.625 z" id="path3355" style="opacity:0.8;fill:url(#radialGradient2646);fill-opacity:1;fill-rule:evenodd;stroke:none;stroke-width:4;stroke-linecap:round;stroke-linejoin:miter;marker:none;marker-start:none;marker-mid:none;marker-end:none;stroke-miterlimit:4;stroke-dasharray:none;stroke-dashoffset:0;stroke-opacity:1;visibility:visible;display:inline;overflow:visible;enable-background:accumulate" inkscape:original="M -257.15625 239.34375 C -286.0364 239.34375 -309.46874 262.7761 -309.46875 291.65625 C -309.46875 291.6982 -309.46885 291.73932 -309.46875 291.78125 C -301.49653 269.34351 -280.06747 253.25 -254.90625 253.25 C -234.43196 253.25 -216.44816 263.91239 -206.15625 279.96875 C -211.47618 256.71703 -232.29917 239.34375 -257.15625 239.34375 z " inkscape:radius="-4.2940221" sodipodi:type="inkscape:offset"/>
        </g>
      </g>
      <g transform="translate(329.36784,464.58806)" id="g2590" style="display:inline">
        <path sodipodi:type="inkscape:offset" inkscape:radius="56.821144" inkscape:original="M 300 87.3125 C 203.03728 87.3125 122.0651 150.95146 96.09375 239.0625 C 221.70307 203.80132 351.09094 188.0381 483.34375 192.25 C 446.52394 129.49279 378.60748 87.3125 300 87.3125 z " style="opacity:0.7;fill:url(#linearGradient2648);fill-opacity:1;fill-rule:evenodd;stroke:none;stroke-width:3;stroke-linecap:round;stroke-linejoin:miter;marker:none;marker-start:none;marker-mid:none;marker-end:none;stroke-miterlimit:4;stroke-dashoffset:0;stroke-opacity:1;visibility:visible;display:inline;overflow:visible;enable-background:accumulate" id="path3117" d="M 300,30.5 C 178.17523,30.5 74.522842,111.28395 41.59375,223 C 35.751226,242.8272 41.135432,264.26321 55.653639,278.97629 C 70.171846,293.68938 91.534161,299.3589 111.4375,293.78125 C 231.5136,260.07336 354.96506,245.00045 481.53125,249.03125 C 502.20858,249.68093 521.60543,239.0424 532.17157,221.25671 C 542.73771,203.47102 542.80366,181.34837 532.34375,163.5 C 485.71456,84.023283 398.93406,30.5 300,30.5 z" transform="matrix(0.4415086,0,0,0.4575155,15.89116,13.07978)"/>
        <path sodipodi:type="inkscape:offset" inkscape:radius="53.767216" inkscape:original="M 434.96875 338.875 C 323.73872 339.46237 215.72683 356.09971 109.96875 388.5625 C 143.20004 460.05148 215.29858 509.71875 300 509.71875 C 402.63022 509.71875 487.04247 437.503 505.78125 340.6875 C 482.02984 339.37446 458.43104 338.75111 434.96875 338.875 z " style="opacity:0.6;fill:url(#linearGradient2650);fill-opacity:1;fill-rule:evenodd;stroke:none;stroke-width:3;stroke-linecap:round;stroke-linejoin:miter;marker:none;marker-start:none;marker-mid:none;marker-end:none;stroke-miterlimit:4;stroke-dashoffset:0;stroke-opacity:1;visibility:visible;display:inline;overflow:visible;enable-background:accumulate" id="path3119" d="M 434.6875,285.09375 C 318.27997,285.70846 204.83654,303.19217 94.1875,337.15625 C 79.331804,341.72136 67.177761,352.4906 60.857505,366.68871 C 54.53725,380.88682 54.668981,397.12505 61.21875,411.21875 C 102.96818,501.03243 194.27988,563.5 300,563.5 C 427.85242,563.5 535.04725,472.39976 558.5625,350.90625 C 561.51307,335.65912 557.72756,319.88088 548.18021,307.63225 C 538.63286,295.38361 524.25612,287.86084 508.75,287 C 483.97516,285.63038 459.29245,284.96383 434.6875,285.09375 z" transform="matrix(0.4299377,0,0,0.4575155,24.13627,8.79141)"/>
      </g>
    </g>
  </g>
</svg>