<svg id="Layer_1" data-name="Layer 1" xmlns="http://www.w3.org/2000/svg" viewBox="0 0 216 216"><defs><style>.cls-1{fill:#231f20;}.cls-2{fill:#297cc0;}.cls-3{fill:#fff;}</style></defs><title>heating-service</title><path class="cls-1" d="M169.61,0H46.39A46.44,46.44,0,0,0,0,46.39V169.61A46.44,46.44,0,0,0,46.39,216H169.61A46.44,46.44,0,0,0,216,169.61V46.39A46.44,46.44,0,0,0,169.61,0"/><path class="cls-2" d="M169.61,211.2H46.39A41.72,41.72,0,0,1,4.8,169.61V46.39A41.72,41.72,0,0,1,46.39,4.8H169.61A41.72,41.72,0,0,1,211.2,46.39V169.61a41.72,41.72,0,0,1-41.59,41.59"/><path class="cls-3" d="M167,95.81a91.42,91.42,0,0,0-19.1,8.06c-.42-2.07-.88-4-1.35-5.77a199.77,199.77,0,0,0-9-26s-.16,13.83-13,26.43c.29-13-4.3-28.4-8.16-37.82a213.58,213.58,0,0,0-11.3-23.32,51.49,51.49,0,0,1-6.1,30.31,68.24,68.24,0,0,0-3.62,7.87c-9.55-14.15-4.17-27.05-4.17-27.05S75.53,71.05,74.39,90.94c-.75,13,10,27.33,9.46,39.34-.41-2.12-4.35-10.54-7-14.69-3-4.73-5.89-8.39-7.41-13.89a34.55,34.55,0,0,1,.19-18.23S49.15,104.53,49,130c-.16,21.58,13.69,37,23.78,41.56s17.34,7,31.57,7c15.5,0,28.28-2.4,39.46-11.28,8.86-7,18.09-20.68,14.12-40A35.1,35.1,0,0,1,167,95.81m-38.77,53.12c1.32,9.28-3.46,16.47-7.93,19.06-3.57,2.06-7.18,4.13-13.09,4.13-6.43,0-11-1.43-15.65-5.2-3.67-3-8.21-8.77-6.57-17a15.09,15.09,0,0,0-3.79-13.36A37,37,0,0,1,89.16,140c.17-.88.37-1.7.56-2.45a84.94,84.94,0,0,1,3.74-11,17.63,17.63,0,0,0,5.38,11.2c-.13-5.5,1.78-12,3.38-16a91.73,91.73,0,0,1,4.68-9.89,22.31,22.31,0,0,0,2.53,12.86,29.88,29.88,0,0,1,1.51,3.33,13,13,0,0,0,1.72-11.47A39.3,39.3,0,0,1,121,139.1a15.71,15.71,0,0,1,3.17-5.14,22.74,22.74,0,0,1,5.56-3.94S126.1,133.56,128.27,148.93Z"/></svg>