<?xml version="1.0" encoding="iso-8859-1"?>
<!-- Generator: Adobe Illustrator 19.0.0, SVG Export Plug-In . SVG Version: 6.00 Build 0)  -->
<svg version="1.1" id="Layer_1" xmlns="http://www.w3.org/2000/svg" xmlns:xlink="http://www.w3.org/1999/xlink" x="0px" y="0px"
	 viewBox="0 0 512 512" style="enable-background:new 0 0 512 512;" xml:space="preserve">
<path style="fill:#E8EDEE;" d="M467.862,512H44.138C19.421,512,0,492.579,0,467.862V44.138C0,19.421,19.421,0,44.138,0h423.724
	C492.579,0,512,19.421,512,44.138v423.724C512,492.579,492.579,512,467.862,512"/>
<path style="fill:#CBD4D8;" d="M57.379,476.69c-12.359,0-22.069-9.71-22.069-22.069V57.379c0-12.359,9.71-22.069,22.069-22.069
	h397.241c12.359,0,22.069,9.71,22.069,22.069v397.241c0,12.359-9.71,22.069-22.069,22.069H57.379z"/>
<path style="fill:#E8EDEE;" d="M273.655,134.179v33.545h-35.31v-33.545C178.317,143.007,132.414,194.207,132.414,256
	s45.903,113.876,105.931,121.821v-33.545h35.31v33.545c60.028-8.828,105.931-60.028,105.931-121.821
	S333.683,142.124,273.655,134.179"/>
<g>
	<path style="fill:#38454F;" d="M220.69,256c0-15.007-11.476-26.483-26.483-26.483c-15.007,0-26.483,11.476-26.483,26.483
		s11.476,26.483,26.483,26.483C209.214,282.483,220.69,271.007,220.69,256"/>
	<path style="fill:#38454F;" d="M344.276,256c0-15.007-11.476-26.483-26.483-26.483c-15.007,0-26.483,11.476-26.483,26.483
		s11.476,26.483,26.483,26.483C332.8,282.483,344.276,271.007,344.276,256"/>
</g>
<path style="fill:#D3AA6E;" d="M264.828,256c0-5.297-3.531-8.828-8.828-8.828c-5.297,0-8.828,3.531-8.828,8.828
	c0,5.297,3.531,8.828,8.828,8.828C261.297,264.828,264.828,261.297,264.828,256"/>
<g>
</g>
<g>
</g>
<g>
</g>
<g>
</g>
<g>
</g>
<g>
</g>
<g>
</g>
<g>
</g>
<g>
</g>
<g>
</g>
<g>
</g>
<g>
</g>
<g>
</g>
<g>
</g>
<g>
</g>
</svg>
