<?xml version="1.0" encoding="iso-8859-1"?>
<!-- Generator: Adobe Illustrator 19.0.0, SVG Export Plug-In . SVG Version: 6.00 Build 0)  -->
<svg version="1.1" id="Capa_1" xmlns="http://www.w3.org/2000/svg" xmlns:xlink="http://www.w3.org/1999/xlink" x="0px" y="0px"
	 viewBox="0 0 512 512" style="enable-background:new 0 0 512 512;" xml:space="preserve">
<g>
	<path style="fill:#90A4AE;" d="M63.989,128h106.667c5.891,0,10.667,4.776,10.667,10.667V224c0,5.891-4.776,10.667-10.667,10.667
		H63.989c-5.891,0-10.667-4.776-10.667-10.667v-85.333C53.323,132.776,58.098,128,63.989,128z"/>
	<path style="fill:#90A4AE;" d="M341.323,128h-42.667c-5.891,0-10.667,4.776-10.667,10.667V224c0,5.891,4.776,10.667,10.667,10.667
		h21.333c17.673,0,32,14.327,32,32v42.667c0,5.891,4.776,10.667,10.667,10.667h85.333c5.891,0,10.667-4.776,10.667-10.667v-64
		C458.585,180.561,406.095,128.071,341.323,128z"/>
</g>
<path style="fill:#2196F3;" d="M414.112,367.275c-3.726-4.848-10.677-5.758-15.526-2.031c-0.763,0.586-1.445,1.269-2.031,2.031
	c-7.445,10.667-44.544,65.792-44.544,91.392c0,29.455,23.878,53.333,53.333,53.333s53.333-23.878,53.333-53.333
	C458.656,433.067,421.536,378.048,414.112,367.275z"/>
<path style="fill:#455A64;" d="M234.656,106.667c-5.891,0-10.667-4.776-10.667-10.667V43.221c0-5.891,4.776-10.667,10.667-10.667
	s10.667,4.776,10.667,10.667V96C245.323,101.891,240.547,106.667,234.656,106.667z"/>
<g>
	<path style="fill:#607D8B;" d="M213.323,85.333h42.667c29.455,0,53.333,23.878,53.333,53.333V224
		c0,29.455-23.878,53.333-53.333,53.333h-42.667c-29.455,0-53.333-23.878-53.333-53.333v-85.333
		C159.989,109.211,183.867,85.333,213.323,85.333z"/>
	<path style="fill:#607D8B;" d="M298.656,0c-21.571,1.433-42.981,4.695-64,9.749c-21.019-5.054-42.429-8.316-64-9.749
		c-17.673,0-32,14.327-32,32s14.327,32,32,32c21.571-1.433,42.981-4.695,64-9.749c21.019,5.054,42.429,8.316,64,9.749
		c17.673,0,32-14.327,32-32S316.329,0,298.656,0z"/>
</g>
<g>
</g>
<g>
</g>
<g>
</g>
<g>
</g>
<g>
</g>
<g>
</g>
<g>
</g>
<g>
</g>
<g>
</g>
<g>
</g>
<g>
</g>
<g>
</g>
<g>
</g>
<g>
</g>
<g>
</g>
</svg>
